<?xml version="1.0" encoding="UTF-8"?><svg xmlns="http://www.w3.org/2000/svg" xmlns:xlink="http://www.w3.org/1999/xlink" viewBox="0 0 613.44 489.21"><defs><style>.e{stroke:#000;stroke-width:6.6px;}.e,.f{fill:none;stroke-linecap:round;stroke-miterlimit:10;}.g{fill:#fff;}.h{fill:#fcee21;}.i{fill:#3fa9f5;}.j{fill:#2e3192;}.f{stroke:#2e3192;stroke-width:3.3px;}.k{clip-path:url(#d);}</style><clipPath id="d"><ellipse class="f" cx="306.72" cy="241.88" rx="305.07" ry="240.23"/></clipPath></defs><g id="b"><ellipse class="g" cx="306.72" cy="248.98" rx="305.07" ry="240.23"/></g><g id="c"><g><g class="k"><rect class="i" x="-49.04" y="-12.11" width="704" height="88.73"/><rect class="i" x="-49.04" y="280.74" width="704" height="88.73"/><rect class="i" x="-49.04" y="427.16" width="704" height="88.73"/><rect class="i" x="-49.04" y="134.31" width="704" height="88.73"/><g><ellipse class="g" cx="311.69" cy="251" rx="136.35" ry="158.13"/><path class="j" d="M448.48,251c.35,57.68-28.5,117.63-80.85,144.88-54.06,28.93-119.49,10.64-156.41-36.79-24.4-30.32-36.71-69.37-36.76-108.09,.06-38.72,12.37-77.78,36.76-108.09,36.92-47.41,102.35-65.73,156.41-36.79,52.36,27.25,81.2,87.19,80.85,144.88h0Zm-.88,0c.15-57.03-28.95-116.36-81.53-141.88-53.16-26.42-114-7.87-148.9,38.56-22.64,29.25-34.02,66.47-33.92,103.32-.19,46,17.95,92.79,52.8,123.46,43.92,39.44,108.16,40.45,153.96,3.21,37.89-30.06,57.49-78.92,57.59-126.67h0Z"/></g><path d="M301.49,210.07c5.99,0,10.1,2.29,10.99,3.84,1.45,2.51,1.35,4.54-.43,8.34-2.33,4.98-6.79,12.28-10.3,17.38-4.04-4.96-10.92-14.23-12.17-17.19-1.2-2.84-1.03-6.08,.43-8.05,1.28-1.73,5.4-4.31,11.48-4.31m0-6.6c-8.31,0-14.33,3.67-16.78,6.99-3.04,4.11-3.2,9.85-1.2,14.55,2,4.7,11.7,17.19,14.64,20.59,1.3,1.5,2.65,2.13,3.89,2.13,1.35,0,2.56-.75,3.42-1.93,3.84-5.24,9.68-14.59,12.57-20.77,1.88-4.03,3.4-8.84,.17-14.44-2.38-4.12-9.01-7.14-16.71-7.14h0Z"/><g><path class="h" d="M307.68,95.04c-.76,0-1.47-.32-1.99-.89-1.26-1.38-1.61-3.96-.52-16.41,.67-7.61,4.03-14.34,9.23-18.46,4.26-3.37,7.91-5.62,13.96-7.1,2.93-.72,6.08-1.1,9.11-1.1s7.1,.37,10.38,2.14c6.93,3.73,10.42,8.67,10.97,15.55,.64,8-7.61,14.54-15.42,15.4-.32,.04-.63,.05-.95,.05-2.83,0-5.19-1.37-7.47-2.7-2.37-1.38-4.6-2.68-7.44-2.68-1.76,0-3.6,.5-5.64,1.52-3.38,1.69-6.48,6.22-8.75,9.52-2.28,3.32-3.53,5.15-5.48,5.15Z"/><path d="M337.47,53.29c3.51,0,6.89,.55,9.33,1.87,7.37,3.97,9.43,8.83,9.82,13.79,.53,6.67-6.61,12.28-13.46,13.03-.24,.03-.47,.04-.71,.04-4.81,0-8.49-5.38-14.91-5.38-1.93,0-4.1,.49-6.62,1.75-6.51,3.26-11.29,14.44-13.24,14.44-1.13,0-1.3-3.74-.32-14.91,.57-6.44,3.33-12.91,8.4-16.92,4.34-3.44,7.74-5.37,13.11-6.68,2.65-.65,5.67-1.03,8.59-1.03m0-4.4c-3.2,0-6.53,.4-9.63,1.16-6.41,1.57-10.42,4.04-14.8,7.51-5.67,4.49-9.33,11.77-10.05,19.99-1.17,13.3-.78,16.06,1.09,18.09,.95,1.03,2.23,1.6,3.62,1.6,3.1,0,4.77-2.43,7.29-6.11,2.13-3.11,5.05-7.36,7.92-8.8,1.73-.86,3.25-1.28,4.66-1.28,2.25,0,4.14,1.1,6.33,2.38,2.41,1.4,5.15,3,8.57,3,.4,0,.79-.02,1.19-.07,4.34-.48,8.7-2.45,11.97-5.41,3.84-3.47,5.76-7.86,5.4-12.35-.61-7.58-4.57-13.25-12.12-17.31-3.68-1.98-8.24-2.4-11.42-2.4h0Z"/></g><path class="e" d="M264.67,345.99c-.55,2.83-.58,11.41,8.78,13.1,8.37,1.51,12.91-4.45,16.2-8.13,.57-.63,1.62-.42,1.93,.37,.64,1.62,3.5,6.91,9.87,7.9s9.81-4.56,10.61-5.6c1.6-2.08,2.56-1.96,4.51,.09,3.54,3.73,6.34,5.48,10.4,5.65,3.59,.15,7.7-2.75,9.84-7.37,.41-.88,1.6-1.05,2.17-.27,4.18,5.72,10.92,7.81,17.36,6.13,6.31-1.65,12.76-7.41,9.88-16.88"/><path class="e" d="M272.76,372.54c.55,2.71,3.7,10.15,11.66,9.88,8.92-.31,9.96-5.37,11.8-9.06,1.37-2.74,4.65-2.2,5.63-.14,1.31,2.77,2.88,10.02,10.7,10.02s9.18-7.28,10.8-9.41c2.24-2.94,3.34-2.94,5.53,.49,1.42,2.21,5.9,9.06,13.17,8.51s11.39-9.06,11.66-11.25"/><path class="e" d="M175.05,235.76c-11.5-6.57-31.24-9.26-43.91-5.38-7.41,2.27-14.17,6.26-21.41,9.01-16.78,6.37-35.27,5.79-53.22,5.69-4.18-.02-9.81,1.37-9.68,5.55,.1,3.25,3.84,4.95,6.99,5.75,6.9,1.76,13.98,2.86,21.09,3.26-3.07,2.58-1.86,7.96,1.31,10.42s7.45,2.81,11.46,3.06c8.15,.52,16.86,.91,23.91-3.23-1.71,3.52,.31,7.95,3.51,10.22s7.23,2.92,11.1,3.51c9.66,1.46,20.25,2.75,28.6-2.33,6.33,3.99,13.95,5.91,21.42,5.39"/><path class="e" d="M447.51,234.85c11.5-6.57,25.74-8.16,38.41-4.28,7.41,2.27,14.17,6.26,21.41,9.01,16.78,6.37,35.27,5.79,53.22,5.69,4.18-.02,9.81,1.37,9.68,5.55-.1,3.25-3.84,4.95-6.99,5.75-6.9,1.76-13.98,2.86-21.09,3.26,3.07,2.58,1.86,7.96-1.31,10.42s-7.45,2.81-11.46,3.06c-8.15,.52-16.86,.91-23.91-3.23,1.71,3.52-.31,7.95-3.51,10.22s-7.23,2.92-11.1,3.51c-9.66,1.46-20.25,2.75-28.6-2.33-6.33,3.99-13.95,5.91-21.42,5.39"/><path d="M241.12,153.08c7.19,0,13.26,4.32,13.26,9.44s-6.07,9.44-13.26,9.44-13.26-4.32-13.26-9.44,6.07-9.44,13.26-9.44m0-6.6c-10.97,0-19.86,7.18-19.86,16.04s8.89,16.04,19.86,16.04,19.86-7.18,19.86-16.04-8.89-16.04-19.86-16.04h0Z"/><path d="M374.08,153.08c6.75,0,12.46,4.32,12.46,9.44s-5.7,9.44-12.46,9.44-12.46-4.32-12.46-9.44,5.7-9.44,12.46-9.44m0-6.6c-10.53,0-19.06,7.18-19.06,16.04s8.53,16.04,19.06,16.04,19.06-7.18,19.06-16.04-8.53-16.04-19.06-16.04h0Z"/></g><ellipse class="f" cx="306.72" cy="241.88" rx="305.07" ry="240.23"/></g></g></svg>