<?xml version="1.0" encoding="UTF-8"?><svg xmlns="http://www.w3.org/2000/svg" xmlns:xlink="http://www.w3.org/1999/xlink" viewBox="0 0 640 480"><defs><style>.e,.f{fill:none;}.g{fill:#fff;}.h{fill:#fcee21;}.i{fill:#3fa9f5;}.f{stroke:#000;stroke-miterlimit:10;}.j{clip-path:url(#d);}</style><clipPath id="d"><ellipse class="e" cx="323.41" cy="230.9" rx="277.34" ry="218.39"/></clipPath></defs><g id="b"><ellipse class="g" cx="323.41" cy="230.9" rx="277.34" ry="218.39"/></g><g id="c"><g class="j"><rect class="i" width="640" height="80.67"/><rect class="i" y="266.22" width="640" height="80.67"/><rect class="i" y="399.33" width="640" height="80.67"/><rect class="i" y="133.11" width="640" height="80.67"/><ellipse class="g" cx="328.06" cy="238.69" rx="123.96" ry="143.75"/><path d="M318.66,196.98c6.39,0,12.28,2.46,14.32,5.99,2.68,4.64,1.49,8.6-.19,12.2-2.59,5.53-7.89,14.02-11.32,18.71-.63,.86-1.45,1.34-2.31,1.34-.92,0-1.88-.55-2.78-1.59-2.6-3.01-11.4-14.34-13.15-18.45-1.79-4.22-1.41-9.03,.97-12.25,2.19-2.96,7.51-5.95,14.45-5.95m0-1c-7.55,0-13.03,3.34-15.26,6.35-2.76,3.73-2.91,8.96-1.09,13.23,1.81,4.28,10.64,15.63,13.31,18.72,1.18,1.37,2.41,1.94,3.54,1.94,1.23,0,2.33-.68,3.11-1.75,3.49-4.77,8.8-13.27,11.42-18.88,1.71-3.66,3.09-8.04,.15-13.12-2.17-3.75-8.19-6.49-15.19-6.49h0Z"/><g><path class="h" d="M324.31,94.9c-.59-.53-.53-4.91,.18-13.01,.55-6.24,3.26-11.72,7.45-15.04,3.6-2.85,6.67-4.75,11.73-5.98,2.44-.6,5.17-.92,7.69-.92,3.4,0,6.25,.57,8.25,1.64,7.13,3.84,8.38,8.5,8.67,12.13,.47,5.85-5.84,10.65-11.79,11.31-.2,.02-.39,.03-.59,.03-1.9,0-3.66-1.03-5.53-2.11-2.23-1.3-4.76-2.77-8.02-2.77-1.99,0-4.04,.54-6.25,1.64-3.65,1.83-6.68,6.25-8.9,9.48-1.07,1.56-2.4,3.5-2.89,3.6Z"/><path d="M351.37,60.45c3.32,0,6.09,.55,8.01,1.58,6.92,3.72,8.13,8.23,8.41,11.73,.43,5.4-5.64,10.14-11.35,10.77-.18,.02-.35,.03-.53,.03-1.76,0-3.39-.95-5.28-2.05-2.29-1.33-4.88-2.84-8.27-2.84-2.07,0-4.19,.55-6.47,1.69-3.77,1.88-6.84,6.37-9.09,9.64-.76,1.11-1.66,2.43-2.25,3.06-.21-1.17-.24-4.34,.45-12.14,.54-6.1,3.18-11.46,7.26-14.69,3.55-2.81,6.57-4.67,11.54-5.89,2.4-.59,5.09-.91,7.57-.91m0-1c-2.66,0-5.4,.35-7.81,.94-4.89,1.19-7.98,2.95-11.92,6.08-4.61,3.65-7.12,9.53-7.64,15.39-.89,10.16-.73,13.56,.29,13.56,1.77,0,6.12-10.17,12.04-13.13,2.3-1.15,4.27-1.59,6.02-1.59,5.83,0,9.18,4.89,13.55,4.89,.21,0,.42-.01,.64-.04,6.23-.69,12.72-5.78,12.24-11.85-.36-4.51-2.23-8.93-8.93-12.53-2.23-1.2-5.29-1.7-8.49-1.7h0Z"/></g><path class="f" d="M265.19,345.54c-.5,2.57,1.07,5.21,3.24,6.66s4.85,1.95,7.45,2.24c5.6,.61,12.3-.14,15.16-4.99-.98,1.45-.24,3.56,1.14,4.63s3.21,1.36,4.95,1.55c2.65,.29,5.39,.44,7.93-.36s4.88-2.72,5.5-5.31c-.83,2.48,2.22,4.38,4.69,5.22,3.36,1.14,6.91,2.29,10.38,1.58s6.67-4.06,5.87-7.52c.61,3.87,4.37,6.97,8.28,6.85s7.47-3.46,7.84-7.35"/><path class="f" d="M282.01,364.49c-.81,2.8,1.31,5.77,3.97,6.96s5.7,1.04,8.61,.87c1.31-.08,2.66-.17,3.8-.81s1.97-2.03,1.56-3.27c.65,2.6,3.01,4.68,5.67,5.01s5.45-1.12,6.71-3.48c-.49,.9,.1,2.09,.98,2.61s1.97,.55,3,.56c2.01,.03,4.07,.05,5.95-.63s3.59-2.25,3.84-4.24"/><path class="f" d="M198.72,224.34c-10.46-5.97-23.4-7.42-34.92-3.89-6.74,2.06-12.88,5.69-19.47,8.19-15.26,5.79-32.06,5.26-48.38,5.17-3.8-.02-8.92,1.25-8.8,5.05,.1,2.95,3.49,4.5,6.35,5.23,6.28,1.6,12.71,2.6,19.18,2.97-2.79,2.35-1.7,7.24,1.19,9.47s6.77,2.55,10.42,2.78c7.41,.47,15.33,.83,21.73-2.94-1.56,3.2,.29,7.23,3.19,9.29s6.57,2.65,10.1,3.19c8.79,1.33,18.41,2.5,26-2.12,5.76,3.63,12.68,5.37,19.47,4.9"/><path class="f" d="M451.4,224.5c10.46-5.97,23.4-7.42,34.92-3.89,6.74,2.06,12.88,5.69,19.47,8.19,15.26,5.79,32.06,5.26,48.38,5.17,3.8-.02,8.92,1.25,8.8,5.05-.1,2.95-3.49,4.5-6.35,5.23-6.28,1.6-12.71,2.6-19.18,2.97,2.79,2.35,1.7,7.24-1.19,9.47s-6.77,2.55-10.42,2.78c-7.41,.47-15.33,.83-21.73-2.94,1.56,3.2-.29,7.23-3.19,9.29s-6.57,2.65-10.1,3.19c-8.79,1.33-18.41,2.5-26-2.12-5.76,3.63-12.68,5.37-19.47,4.9"/><path d="M263.78,145.17c9.4,0,17.06,6.09,17.06,13.58s-7.65,13.58-17.06,13.58-17.06-6.09-17.06-13.58,7.65-13.58,17.06-13.58m0-1c-9.97,0-18.06,6.53-18.06,14.58s8.08,14.58,18.06,14.58,18.06-6.53,18.06-14.58-8.08-14.58-18.06-14.58h0Z"/><path d="M384.65,145.17c9,0,16.33,6.09,16.33,13.58s-7.32,13.58-16.33,13.58-16.33-6.09-16.33-13.58,7.32-13.58,16.33-13.58m0-1c-9.57,0-17.33,6.53-17.33,14.58s7.76,14.58,17.33,14.58,17.33-6.53,17.33-14.58-7.76-14.58-17.33-14.58h0Z"/></g></g></svg>