<?xml version="1.0" encoding="UTF-8"?><svg xmlns="http://www.w3.org/2000/svg" xmlns:xlink="http://www.w3.org/1999/xlink" viewBox="0 0 59.08 67.16"><defs><style>.i,.j,.k,.l,.m{fill:none;}.j{stroke-width:.19px;}.j,.n,.o,.p,.k,.l,.q,.r,.s,.t,.u,.v,.m,.w{stroke-miterlimit:10;}.j,.n,.o,.p,.k,.l,.q,.r,.s,.t,.v,.m,.w{stroke:#000;}.n,.k,.u,.v{stroke-width:.18px;}.x{fill:#fff;}.o{stroke-width:.2px;}.o,.p,.q,.r,.s,.t,.v,.w{fill:#009245;}.p{stroke-width:.11px;}.l{stroke-width:.54px;}.q{stroke-width:.17px;}.r{stroke-width:.21px;}.s{stroke-width:.19px;}.y{clip-path:url(#h);}.z{clip-path:url(#g);}.aa{clip-path:url(#e);}.ab{clip-path:url(#f);}.t{stroke-width:.18px;}.u{fill:#ff7bac;stroke:#ff7bac;}.m{stroke-width:.36px;}.w{stroke-width:.18px;}</style><clipPath id="e"><ellipse class="i" cx="29.54" cy="33.58" rx="29.25" ry="33.25"/></clipPath><clipPath id="f"><path class="x" d="M30.66,41.82c2.22,0,2.89-1.29,3.57-1.7,.62-.38,1-1.49,1.62-1.87,1.26-.78,5.98-.28,7.44-.03,.01,3.84-.59,8.52,3.24,8.83-1.82,1.44-1.42,3.14-1.16,5.44s.06,4.56,.28,6.87c.15,1.58,.17,2.94,.35,4.6,.12,1.1,.29,2.47-.64,3.07-.55,.35-1.24,.38-1.9,.39-6.43,.12-12.86,.05-19.29-.21-1.48-.06-2.98-.14-4.36-.68-.33-.13-.67-.3-.88-.59-.18-.25-.31-.87-.31-.87l.07-11.91s.09-4.13-1.74-4.75c1.32-1.18,1.94-3,2.04-4.77s-.27-3.53-.63-5.27c.03,.15,1.97-.93,5.72-.54,.89,.09,.71,1.11,1.23,1.83,.92,1.29,2.74,2.15,5.34,2.15Z"/></clipPath><clipPath id="g"><path class="x" d="M45.53,38.3c.63,.15,1.22,.45,1.79,.77,2.82,1.59,5.27,3.83,7.1,6.51-.57,.09-6.45,2.59-6.45,2.59l-1.49-1.18c-.65,.19-1.36-.12-1.81-.62s-.78-.91-.97-1.56c-.43-1.5-.56-3.3-.56-4.86,0-.49-.15-1.45,.3-1.75,.42-.27,1.64,0,2.1,.1Z"/></clipPath><clipPath id="h"><path class="x" d="M19.1,42.9c.02,1.28-.28,2.54-.64,3.77-.21,.71-.43,1.42-.81,2.06s-.91,1.2-1.59,1.48c-.08,.03-.16,.06-.24,.06-.1,0-.2-.06-.29-.11-1.83-1.08-3.66-2.17-5.49-3.27,.03-.45,.31-.84,.57-1.2,.86-1.18,1.73-2.37,2.59-3.55,.66-.9,1.32-1.81,2.18-2.52,.47-.39,1-.71,1.58-.91,.35-.12,1.27-.44,1.54-.08,.14,.18,.1,.76,.14,.99,.06,.35,.12,.71,.18,1.06,.13,.73,.25,1.47,.27,2.22Z"/></clipPath></defs><g id="a"><g><path class="x" d="M29.54,67.07C13.3,67.07,.09,52.05,.09,33.58S13.3,.09,29.54,.09s29.45,15.02,29.45,33.49-13.21,33.49-29.45,33.49Z"/><path d="M29.54,.19c16.19,0,29.36,14.98,29.36,33.4s-13.17,33.4-29.36,33.4S.19,52,.19,33.58,13.35,.19,29.54,.19m0-.19C13.23,0,0,15.04,0,33.58s13.23,33.58,29.54,33.58,29.54-15.04,29.54-33.58S45.86,0,29.54,0h0Z"/></g></g><g id="d"><g class="aa"><path d="M28.7,7.22c.1,0,.2,0,.3,.01,.74,.06,1.39,.08,2.01,.09,1.69,.04,3.02,.08,4.89,.94,.9,.41,3.76,1.84,4.47,2.54,1.56,1.52,2.31,2.42,2.93,4.71,.43,1.58-.12,4.85-.86,6.5-.48,1.07-1.94,4.32-3.07,5.81l-.08,.1c-.69,.91-2.13,2.8-3.04,3.33-.17,.1-.37,.25-.61,.42-1.06,.76-3.03,2.17-5.85,2.17-.25,0-.51-.01-.77-.03-2.47-.22-3.56-1.2-4.82-2.34-.32-.29-.66-.59-1.03-.89-.74-.6-2.15-1.99-2.66-2.81-1.14-1.81-1.53-3.55-2.01-5.99-.1-.52-.24-1.06-.37-1.58-.44-1.75-.89-3.57-.2-5.21,1.24-2.94,2.82-4.84,4.82-5.82,1.85-.9,4.2-1.94,5.95-1.94m0-.18c-1.91,0-4.54,1.24-6.02,1.96-2.29,1.12-3.82,3.35-4.9,5.91-.93,2.2,.12,4.63,.56,6.89,.46,2.36,.86,4.19,2.03,6.05,.52,.83,1.94,2.24,2.7,2.85,1.81,1.46,2.78,2.99,5.95,3.27,.27,.02,.53,.03,.79,.03,3.5,0,5.66-2.09,6.55-2.61,.97-.57,2.49-2.58,3.17-3.48,1.06-1.39,2.38-4.25,3.09-5.84,.72-1.6,1.33-4.93,.87-6.62-.64-2.37-1.45-3.31-2.98-4.79-.73-.71-3.6-2.15-4.53-2.57-2.59-1.19-4.18-.83-6.97-1.04-.1,0-.21-.01-.31-.01h0Z"/><path class="m" d="M20.02,19.47c.6,.05,1.18-.23,1.77-.35,1.04-.2,2.18,.16,2.91,.93"/><path class="m" d="M34.73,20.15c1.14-.51,2.39-.75,3.64-.7,.8,.03,1.7,.24,2.13,.92"/><path class="l" d="M35.77,16.77c2.05-.29,4.2,.33,5.79,1.66"/><path class="l" d="M24.13,16.3c-1.75-.32-3.6-.01-5.15,.85"/><path class="k" d="M26.98,23.95c.11,.3,.47,.47,.77,.38,.08,.27,.36,.42,.63,.5,.38,.11,.79,.14,1.18,.08,.26-.04,.53-.12,.68-.33,.14,.05,.29,.11,.45,.09s.31-.11,.34-.26"/><path class="n" d="M30.81,26.12c-.1,.03-.06,.13-.01,.17,.05,.04,.12,.06,.2,.02,.03-.08,0-.14-.06-.17s-.13-.02-.13-.02Z"/><path class="k" d="M26.98,23.95c.11,.3,.47,.47,.77,.38,.08,.27,.36,.42,.63,.5,.38,.11,.79,.14,1.18,.08,.26-.04,.53-.12,.68-.33,.14,.05,.29,.11,.45,.09s.31-.11,.34-.26"/><path class="n" d="M30.81,26.12c-.1,.03-.06,.13-.01,.17,.05,.04,.12,.06,.2,.02,.03-.08,0-.14-.06-.17s-.13-.02-.13-.02Z"/><path class="u" d="M25.07,27.06c.28,.21,.68,.29,1.01,.32,.5,.04,1.02,0,1.51,.16,.41,.13,.77,.38,1.19,.44,.2,.03,.41,.01,.61,.01,.62,0,1.23,.12,1.85,.15s1.28-.06,1.77-.44c-1.14,.3-2.31-.32-3.49-.3-.21,0-.43,.03-.64,0-.26-.04-.51-.16-.77-.24-.52-.16-1.06-.16-1.59-.15-.47,0-1.18-.23-1.59,.01,.45,.77,.51,1.43,1.38,1.92,.68,.38,1.47,.51,2.25,.55,.74,.04,1.48,.01,2.21-.08,.48-.06,.97-.16,1.38-.41s.73-.71,.7-1.2c-.63,.77-1.77,.84-2.77,.86-.66,0-1.33,.01-1.98-.09-1.12-.18-2.19-.69-3.04-1.45"/><path class="k" d="M20.02,20.61l.33-1.01c-.08,.25-.26,.76-.33,1.01Z"/><path class="k" d="M22.16,19.11l-.15,1.5"/><path class="k" d="M23.53,19.61c-.1,.36-.15,.74-.14,1.12"/><path class="k" d="M35.98,19.97l-.23,1.13"/><path class="k" d="M37.74,19.73l-.25,1.5"/><path class="k" d="M39.52,19.98v1.37"/><path class="k" d="M17.61,38.37c-.37-1.99-.75-3.99-1.4-5.9-.35-1.03-.77-2.03-.94-3.1-.19-1.19-.04-2.41,0-3.61,.07-2.23-.22-4.49,.17-6.69,.22-1.28,.67-2.52,1.12-3.74,.14-.39,.29-.79,.51-1.14,.24-.37,.57-.69,.9-.98,1.08-.95,2.29-1.76,3.58-2.4,.72-.36,1.48-.68,2.01-1.28,.57-.66,.83-1.61,1.59-2.05,.41-.23,.9-.27,1.37-.29,.89-.03,1.78,.01,2.67,.11-.85,.92-.84,2.25-1.73,3.13-.31,.31-.62,.61-1,.83-.71,.4-1.56,.44-2.35,.62-2.22,.49-4.01,2.07-5.7,3.6-.36,.33-.74,.69-.86,1.16-.11,.42,0,.86-.07,1.28-.09,.45-.4,.83-.57,1.26-.24,.57-.24,1.21-.24,1.82,0,2.43,0,4.86,.01,7.28"/><path class="k" d="M30.4,7.46c1.16,2.11,3.29,3.46,5.34,4.73,1.32,.82,2.65,1.64,3.97,2.46,.85,.52,1.71,1.06,2.35,1.82,.61,.73,.99,1.63,1.35,2.51,.39,.95,.79,1.91,.94,2.93,.18,1.24-.03,2.52,.17,3.76,.22,1.36,.93,2.64,.93,4.02,0,.11-.13,.27-.18,.17"/><path class="k" d="M29.26,7.13l-5.76,.19c-.67,.02-1.38,.06-1.91,.47-.6,.47-.78,1.28-1.11,1.96-.6,1.25-1.74,2.14-2.9,2.9-.69,.45-1.42,.91-1.83,1.62-.6,1.05-.34,2.38-.61,3.57-.19,.85-.64,1.61-.93,2.44-.24,.69-.36,1.42-.43,2.14-.2,1.97-.1,3.97,.3,5.9"/><path class="k" d="M31.06,7.06c2.41,.16,4.8,.52,7.15,1.09,.38,.09,.75,.19,1.12,.31,1.71,.59,3.19,1.83,4.06,3.42,.74,1.35,1.04,2.89,1.32,4.41,.3,1.62,.61,3.23,.79,4.87,.27,2.52,.24,5.07,.21,7.6"/><path class="k" d="M47.46,31.68c.18-7.16-2.29-14.35-6.83-19.89-.35-.43-.73-.86-1.22-1.12-.79-.42-1.75-.34-2.63-.51-1.04-.2-1.99-.78-2.65-1.61-.83-1.04-2.44-1.32-3.77-1.29"/><path class="k" d="M28.6,7.45c-2.77,2.32-5.58,4.66-8.84,6.22-.39,.19-.78,.36-1.11,.64-.44,.37-.71,.9-.97,1.42-.51,.99-1.01,1.98-1.52,2.98-.25,.49-.5,.98-.58,1.52-.08,.57,.04,1.15,.14,1.72,.52,3.07,.39,6.2,.25,9.31"/><path class="k" d="M43.78,35.3c.19-2.62-.26-5.25-.13-7.87,.12-2.46,.76-4.93,.35-7.37-.48-2.88-2.4-5.35-4.69-7.16s-4.96-3.06-7.54-4.42c-.52-.27-1.09-.63-1.16-1.21,1.53-.34,2.84-.93,4.3-.37,.67,.26,1.25,.69,1.87,1.05,.9,.52,1.89,.9,2.78,1.43,2.25,1.33,3.85,3.65,4.46,6.19s.27,5.27-.81,7.65c-.62,1.38-1.5,2.69-1.73,4.18-.22,1.45,.18,2.93,.16,4.39-.03,1.45-.47,2.85-.68,4.28-.31,2.13-.09,4.3,.13,6.44"/><path class="k" d="M29.65,7c-1.08-1.01-2.81-1.04-4.17-.45s-2.43,1.67-3.47,2.73c-.38,.39-.77,.8-.96,1.32-.13,.37-.14,.78-.27,1.15-.16,.48-.49,.89-.75,1.33-.4,.67-.64,1.42-.87,2.16-.61,1.94-1.22,3.9-1.47,5.91-.25,2.01-.14,4.05,0,6.07,.1,1.4,.22,2.8,.35,4.19,.21,2.12,.46,4.23,.71,6.34,.18,1.52,.36,3.05,.54,4.57"/><path class="k" d="M27.42,6.95c-1.01,.24-2.04-.4-3.08-.33-1.67,.12-2.68,1.96-4.24,2.59-.54,.22-1.15,.3-1.6,.67-.63,.51-.76,1.41-.84,2.21-.12,1.2-.24,2.39-.36,3.59-.3,3.01-.61,6.03-.44,9.05,.12,2.08,.46,4.15,.54,6.24,.04,1.1,.01,2.21-.15,3.31-.1,.69-.26,1.38-.29,2.08-.12,2.41,1.21,4.8,.73,7.17"/><path class="k" d="M30.29,6.98c1.2-1.18,3.16-1.19,4.74-.6s2.91,1.67,4.37,2.51c.35,.2,.72,.4,1.01,.68,.3,.3,.49,.67,.68,1.05,.4,.79,.81,1.58,1.01,2.44,.22,.95,.18,1.94,.37,2.89,.21,1.03,.68,1.99,.92,3.01,.49,2.06,0,4.21-.21,6.32-.22,2.29-.1,4.61,.02,6.91,.17,3.26,.34,6.53,.51,9.79"/><path class="k" d="M24.18,31.59c.11,1.5,.21,2.99,.32,4.49,.05,.65,.09,1.32-.1,1.94s-.68,1.19-1.33,1.29c.11,.1,.21,.19,.32,.29"/><path class="k" d="M22.77,39.36c.32,.62,.96,1.01,1.59,1.31,2.69,1.29,5.76,1.54,8.75,1.52,.89,0,1.81-.04,2.61-.44s1.66-1.66,1.52-2.54c-.88-.08-1.57-.84-1.85-1.68s-.23-1.74-.17-2.62l.19-2.93"/><path class="j" d="M19.48,25.7c-.37,1.04-.37,2.2,.01,3.23,.31,.85,.88,1.78,.46,2.59-.1,.19-.25,.38-.23,.6,.02,.22,.21,.37,.35,.54,.58,.71,.28,1.75,.2,2.67-.07,.81,.05,1.64,.37,2.4"/><path class="j" d="M38.45,29.33c.26,.59,1.16,.75,1.28,1.39,.04,.2-.02,.4-.08,.6-.27,.95-.59,1.96-1.36,2.59-.27,.22-.6,.4-.73,.71-.1,.24-.07,.52-.04,.78,.11,.82,.22,1.64,.33,2.46"/><path class="j" d="M22.54,30.41c-.22,.29-.27,.68-.24,1.04s.14,.72,.21,1.08c.3,1.71-.43,3.51,.08,5.17"/><path class="j" d="M36.69,31.26l.21,2.26c.02,.17,.03,.35-.02,.51-.04,.12-.12,.23-.17,.35-.07,.17-.07,.35-.08,.53-.03,1.61-.06,3.21-.09,4.82"/><path class="j" d="M40.15,27.06c.4,.73,.42,1.62,.33,2.45s-.29,1.66-.27,2.5c0,.42,.07,.84,0,1.26-.07,.37-.24,.71-.35,1.07-.24,.74-.25,1.53-.26,2.31,0,.98-.02,1.96-.03,2.94"/><path class="j" d="M22.54,30.31l-.06,.16"/><path class="j" d="M22.67,37.66c.16,.35,.2,.75,.11,1.12"/><path class="j" d="M20.65,37.66c.22,.32,.29,.74,.21,1.12"/><path class="j" d="M18.76,24.24c-.67,1.74-.86,3.67-.53,5.52,.08,.44,.18,.87,.29,1.3,.63,2.59,1.17,5.24,.94,7.89"/><path class="j" d="M21.5,29.21c-.54,.66-.73,1.59-.49,2.4,.08,.26,.19,.51,.27,.77,.15,.48,.17,.99,.19,1.5,.06,1.6,.12,3.2,.18,4.8"/><path class="j" d="M37.42,30.3l.43,2.82c.03,.23,.07,.46,.05,.69-.01,.21-.07,.42-.1,.64-.16,1.03,.22,2.12-.09,3.11"/><path class="j" d="M42.7,21.9c-.26,1.22,.45,2.41,.84,3.6,.4,1.21,.46,2.5,.52,3.78,.13,2.9,.24,5.8,.32,8.7"/><path class="j" d="M11.52,46.61c-.73,.8-1.22,1.78-1.7,2.75-.91,1.83-1.81,3.66-2.72,5.5"/><path class="j" d="M14.87,49.28c-1.73,2.81-3.58,5.55-5.53,8.21"/><path class="j" d="M48.87,47.74l3.23,6.87"/><path class="j" d="M52.24,45.44c.9,1.58,1.79,3.17,2.69,4.75"/><g><path class="x" d="M30.66,41.82c2.22,0,2.89-1.29,3.57-1.7,.62-.38,1-1.49,1.62-1.87,1.26-.78,5.98-.28,7.44-.03,.01,3.84-.59,8.52,3.24,8.83-1.82,1.44-1.42,3.14-1.16,5.44s.06,4.56,.28,6.87c.15,1.58,.17,2.94,.35,4.6,.12,1.1,.29,2.47-.64,3.07-.55,.35-1.24,.38-1.9,.39-6.43,.12-12.86,.05-19.29-.21-1.48-.06-2.98-.14-4.36-.68-.33-.13-.67-.3-.88-.59-.18-.25-.31-.87-.31-.87l.07-11.91s.09-4.13-1.74-4.75c1.32-1.18,1.94-3,2.04-4.77s-.27-3.53-.63-5.27c.03,.15,1.97-.93,5.72-.54,.89,.09,.71,1.11,1.23,1.83,.92,1.29,2.74,2.15,5.34,2.15Z"/><g class="ab"><rect class="s" x="16.08" y="46" width="32.04" height="1.02"/><rect class="q" x="18.72" y="51.14" width="26.75" height="1.02"/><rect class="v" x="17.64" y="53.7" width="28.91" height="1.02"/><rect class="w" x="17.01" y="56.27" width="30.17" height="1.02"/><rect class="w" x="17.01" y="58.84" width="30.17" height="1.02"/><rect class="t" x="17.82" y="61.4" width="28.56" height="1.02"/><rect class="t" x="17.82" y="63.97" width="28.56" height="1.02"/><rect class="v" x="17.64" y="48.57" width="28.91" height="1.02"/><rect class="o" x="15.56" y="43.38" width="33.07" height="1.14"/><rect class="r" x="14.16" y="40.68" width="34.47" height="1.14"/><rect class="r" x="14.16" y="38.16" width="34.47" height="1.14"/></g></g><g><path class="x" d="M45.53,38.3c.63,.15,1.22,.45,1.79,.77,2.82,1.59,5.27,3.83,7.1,6.51-.57,.09-6.45,2.59-6.45,2.59l-1.49-1.18c-.65,.19-1.36-.12-1.81-.62s-.78-.91-.97-1.56c-.43-1.5-.56-3.3-.56-4.86,0-.49-.15-1.45,.3-1.75,.42-.27,1.64,0,2.1,.1Z"/><g class="z"><g><rect class="p" x="42.62" y="43.58" width="9.48" height="1.12" transform="translate(111.6 52.11) rotate(144.09)"/><rect class="p" x="44.41" y="46.05" width="9.48" height="1.12" transform="translate(116.3 55.54) rotate(144.09)"/><rect class="p" x="41.17" y="41.38" width="9.48" height="1.12" transform="translate(107.7 48.99) rotate(144.09)"/><rect class="p" x="39.44" y="38.94" width="9.48" height="1.12" transform="translate(103.12 45.57) rotate(144.09)"/></g></g></g><g><path class="x" d="M19.1,42.9c.02,1.28-.28,2.54-.64,3.77-.21,.71-.43,1.42-.81,2.06s-.91,1.2-1.59,1.48c-.08,.03-.16,.06-.24,.06-.1,0-.2-.06-.29-.11-1.83-1.08-3.66-2.17-5.49-3.27,.03-.45,.31-.84,.57-1.2,.86-1.18,1.73-2.37,2.59-3.55,.66-.9,1.32-1.81,2.18-2.52,.47-.39,1-.71,1.58-.91,.35-.12,1.27-.44,1.54-.08,.14,.18,.1,.76,.14,.99,.06,.35,.12,.71,.18,1.06,.13,.73,.25,1.47,.27,2.22Z"/><g class="y"><g><rect class="p" x="10.87" y="44.13" width="9.48" height="1.12" transform="translate(29.18 -.66) rotate(35.91)"/><rect class="p" x="9.08" y="46.61" width="9.48" height="1.12" transform="translate(30.29 .86) rotate(35.91)"/><rect class="p" x="14.26" y="39.46" width="9.48" height="1.12" transform="translate(27.08 -3.53) rotate(35.91)"/><rect class="p" x="12.58" y="41.77" width="9.48" height="1.12" transform="translate(28.12 -2.11) rotate(35.91)"/></g></g></g></g></g></svg>